<svg xmlns="http://www.w3.org/2000/svg" viewBox="0 0 24 24"><defs><style type="text/css">.skinbaseDark,.skinthemeDark{fill-rule:evenodd;}.skinbaseDark{opacity:0.8;}.skinthemeDark{fill:#5789d9;}</style></defs><title>艺术字大小</title><path class="skinbaseDark" d="M17.9993,18.9997H16.9367L15.27,14H7.7281L6.0617,18.9997H4.9991L8.9988,6.9993h0a2.92165,2.92165,0,0,1,2.5-2,2.75159,2.75159,0,0,1,2.5,2h0ZM12.9363,6.9993a1.2901,1.2901,0,0,0-1.4375-.9375,1.39754,1.39754,0,0,0-1.4375.9375h0L8.0613,13h6.8753L12.9362,6.9993h.0001Z"/><path class="skinthemeDark" d="M23,21v1a1,1,0,0,1-1,1H21a1,1,0,0,1-1-1H3a1,1,0,0,1-1,1H1a1,1,0,0,1-1-1V21a1,1,0,0,1,1-1V4A1,1,0,0,1,0,3V2A1,1,0,0,1,1,1H2A1,1,0,0,1,3,2H20a1,1,0,0,1,1-1h1a1,1,0,0,1,1,1V3a1,1,0,0,1-1,1V20A1,1,0,0,1,23,21ZM1,21.6a.4.4,0,0,0,.4.4h.2a.4.4,0,0,0,.4-.4v-.2a.4.4,0,0,0-.4-.4H1.4a.4.4,0,0,0-.4.4ZM2,2.4A.4.4,0,0,0,1.6,2H1.4a.4.4,0,0,0-.4.4v.2a.4.4,0,0,0,.4.4h.2A.4.4,0,0,0,2,2.6ZM20,3H3A1,1,0,0,1,2,4V20a1,1,0,0,1,1,1H20a1,1,0,0,1,1-1V4A1,1,0,0,1,20,3Zm2-.6a.4.4,0,0,0-.4-.4h-.2a.4.4,0,0,0-.4.4v.2a.4.4,0,0,0,.4.4h.2a.4.4,0,0,0,.4-.4ZM21.6,21h-.2a.4.4,0,0,0-.4.4v.2a.4.4,0,0,0,.4.4h.2a.4.4,0,0,0,.4-.4v-.2A.4.4,0,0,0,21.6,21Z"/></svg>